<svg width="27" height="32" viewBox="0 0 27 32" fill="none" xmlns="http://www.w3.org/2000/svg">
<path d="M21.8909 30.7114C20.2004 32.3959 18.3351 32.1333 16.5573 31.339C14.6671 30.5288 12.9391 30.4776 10.9429 31.339C8.45698 32.4407 7.13761 32.1204 5.64044 30.7114C-2.8123 21.7766 -1.56466 8.16621 8.04214 7.65382C10.3721 7.78192 12.0034 8.97643 13.3758 9.07571C15.4157 8.64978 17.3682 7.42965 19.5516 7.58978C22.1748 7.80754 24.1367 8.87075 25.4467 10.7826C20.0506 14.1131 21.3295 21.4147 26.2857 23.4643C25.2938 26.1383 24.0213 28.7803 21.8878 30.7338L21.8909 30.7114ZM13.1886 7.55775C12.936 3.58673 16.0707 0.320244 19.6764 0C20.1723 4.57948 15.6215 8.00609 13.1886 7.55775Z" fill="black"/>
</svg>
