<svg data-v-c01372f2="" width="55" height="71" viewBox="0 0 55 71" fill="none" xmlns="http://www.w3.org/2000/svg"><path data-v-c01372f2="" fill-rule="evenodd" clip-rule="evenodd" d="M53.2379 0.684638C54.3397 1.42833 55 2.67076 55 4.00002V47.5H54.9898C54.9966 47.6658 55 47.8325 55 48C55 54.6274 49.6274 60 43 60C36.3726 60 31 54.6274 31 48C31 41.3726 36.3726 36 43 36C44.4025 36 45.7489 36.2406 47 36.6828V25.4259L24 34.7001V59C24 65.6274 18.6274 71 12 71C5.37258 71 0 65.6274 0 59C0 52.3726 5.37258 47 12 47C13.4025 47 14.7489 47.2406 16 47.6828V16.5C16 14.8685 16.9909 13.4004 18.5041 12.7903L49.5041 0.290252C50.7369 -0.206849 52.1362 -0.0590552 53.2379 0.684638ZM47 9.92586V16.8L24 26.0742V19.2001L47 9.92586Z" fill="white"></path></svg>