<svg width="18" height="33" viewBox="0 0 18 33" fill="none" xmlns="http://www.w3.org/2000/svg">
<path d="M11.4519 0.505707L11.4392 7.57713L11.4266 14.6485L10.8457 13.007V13.0028L10.0923 28.7451C10.8331 30.8328 11.2288 31.9483 11.233 31.9525C11.2372 31.9567 11.6581 31.9819 12.1674 32.0072C13.708 32.083 15.6189 32.2471 17.0711 32.4281C17.4078 32.4702 17.6941 32.4913 17.7151 32.4744C17.7362 32.4576 17.7404 25.2599 17.7362 16.4753L17.7235 0.505707H11.4519V0.505707Z" fill="#B1060F"/>
<path d="M0.10791 0.484663V16.4711C0.10791 25.2641 0.116329 32.466 0.128956 32.4786C0.141584 32.4913 0.684567 32.4365 1.3412 32.365C1.99783 32.2934 2.90281 32.2008 3.35319 32.1629C4.04349 32.104 6.11441 31.9735 6.35012 31.9693C6.42168 31.9693 6.42589 31.6115 6.43431 25.1968L6.44693 18.4242L6.94783 19.8385C7.02359 20.0573 7.04885 20.1247 7.12461 20.3394L7.87805 4.60124C7.71811 4.15086 7.80229 4.38657 7.62129 3.87305C7.00675 2.13466 6.48482 0.665657 6.46377 0.59831L6.42168 0.480453H0.10791V0.484663Z" fill="#B1060F"/>
<path d="M11.4519 0.505707L11.4392 7.57713L11.4266 14.6485L10.8457 13.007V13.0028L10.0923 28.7451C10.8331 30.8328 11.2288 31.9483 11.233 31.9525C11.2372 31.9567 11.6581 31.9819 12.1674 32.0072C13.708 32.083 15.6189 32.2471 17.0711 32.4281C17.4078 32.4702 17.6941 32.4913 17.7151 32.4744C17.7362 32.4576 17.7404 25.2599 17.7362 16.4753L17.7235 0.505707H11.4519V0.505707Z" fill="#B1060F"/>
<path d="M0.10791 0.484663V16.4711C0.10791 25.2641 0.116329 32.466 0.128956 32.4786C0.141584 32.4913 0.684567 32.4365 1.3412 32.365C1.99783 32.2934 2.90281 32.2008 3.35319 32.1629C4.04349 32.104 6.11441 31.9735 6.35012 31.9693C6.42168 31.9693 6.42589 31.6115 6.43431 25.1968L6.44693 18.4242L6.94783 19.8385C7.02359 20.0573 7.04885 20.1247 7.12461 20.3394L7.87805 4.60124C7.71811 4.15086 7.80229 4.38657 7.62129 3.87305C7.00675 2.13466 6.48482 0.665657 6.46377 0.59831L6.42168 0.480453H0.10791V0.484663Z" fill="#B1060F"/>
<path d="M0.10791 0.484663V9.45863L6.4301 26.228C6.4301 25.845 6.4301 25.6345 6.43431 25.1968L6.44693 18.4242L6.94783 19.8385C9.72589 27.7181 11.2201 31.9441 11.2286 31.9525C11.2328 31.9567 11.6537 31.982 12.163 32.0072C13.7036 32.083 15.6145 32.2471 17.0667 32.4281C17.4034 32.4702 17.6897 32.4913 17.7107 32.4744C17.7233 32.4618 17.7317 28.9345 17.7317 23.955L11.4432 5.86399L11.439 7.57713L11.4264 14.6486L10.8455 13.007C10.2773 11.4033 9.89846 10.3299 7.61288 3.87305C6.99834 2.13466 6.4764 0.665657 6.45535 0.59831L6.41326 0.480453H0.10791V0.484663Z" fill="url(#paint0_radial_1059:38)"/>
<path d="M0.10791 0.484663L6.44273 18.4368V18.4284L6.94362 19.8427C9.72588 27.7181 11.2201 31.9441 11.2286 31.9525C11.2328 31.9567 11.6537 31.982 12.163 32.0072C13.7036 32.083 15.6145 32.2471 17.0667 32.4281C17.3992 32.4702 17.6897 32.4913 17.7065 32.4744L11.4264 14.6443V14.6486L10.8455 13.007C10.2773 11.4033 9.89846 10.3299 7.61288 3.87305C6.99834 2.13466 6.4764 0.665657 6.45535 0.59831L6.41326 0.480453H3.26059L0.10791 0.484663Z" fill="#E50914"/>
<defs>
<radialGradient id="paint0_radial_1059:38" cx="0" cy="0" r="1" gradientUnits="userSpaceOnUse" gradientTransform="translate(8.62477 16.2948) rotate(-19.1007) scale(1.16152 42.548)">
<stop/>
<stop offset="1" stop-opacity="0"/>
</radialGradient>
</defs>
</svg>
