<svg width="32" height="32" viewBox="0 0 32 32" fill="none" xmlns="http://www.w3.org/2000/svg">
<path d="M31.9999 16C31.9999 24.8366 24.8364 32 16 32C7.16346 32 0 24.8367 0 16C0 7.1635 7.16346 0 16 0C24.8365 0 31.9999 7.1635 31.9999 16Z" fill="white"/>
<path d="M15.8666 5.68829C16.4298 6.01129 17.0273 6.42697 17.4821 6.86748L17.3034 7.0461C16.406 6.95117 15.4607 7.06964 14.6099 7.0827C14.5151 6.98745 14.3239 6.84425 14.5019 6.7246L15.8666 5.68829ZM31.7358 16.7799C31.7477 17.1829 31.7858 17.529 31.6278 17.9415C29.9882 18.4055 28.9112 16.6783 27.3203 16.9388L27.5001 17.8341C28.9719 17.8822 29.8912 19.2864 31.4118 19.226C31.1958 19.6553 31.5082 20.7862 30.5511 20.3341C29.5577 20.0966 28.8394 19.226 27.7508 19.226C27.6194 19.466 27.7026 19.7982 27.6796 20.082C28.828 20.2612 29.6539 21.2269 30.8021 21.4052C30.6941 21.7978 30.587 22.2373 30.2637 22.4767C29.3296 22.2506 28.6001 21.416 27.6057 21.4399L27.4286 22.2619C28.3736 22.2861 28.9842 23.1179 29.8335 23.3676C29.8568 23.7144 29.5453 24.0242 29.3659 24.3337C28.6119 24.1084 28.0369 23.464 27.1755 23.5115C27.1635 23.1887 27.3562 22.822 27.2835 22.4767C26.316 22.763 25.6672 21.8686 24.9501 21.3321C24.9295 19.5764 23.0717 18.4246 22.9736 16.7799C22.9548 16.452 23.005 16.1019 23.1552 15.7257C23.7657 14.3211 23.5739 12.4976 22.9044 11.188C22.701 10.8434 22.3405 10.5713 22.0046 10.3687C22.4961 11.4051 23.095 12.6295 22.7961 13.9033C22.7615 14.887 22.1781 15.8317 22.1714 16.7799C22.1692 17.118 22.2417 17.4561 22.4371 17.7975C23.2155 19.1922 24.6159 20.5124 24.0893 22.2616C23.9445 22.7989 23.5134 23.2143 23.4058 23.7611C24.3164 24.5115 25.1774 25.3569 26.3857 25.4046C26.8162 25.131 26.577 23.9179 27.4627 24.4774L28.7558 25.121C28.6616 25.4654 28.3718 25.774 28.1093 26.0112C27.6187 25.7736 27.1401 25.4888 26.5283 25.512C26.3479 25.7024 26.1927 25.9161 26.2065 26.1894C26.637 26.2599 27.0319 26.4407 27.3915 26.6911C27.2245 27.0489 26.8991 27.2731 26.6 27.5471L25.5968 27.1903C25.4294 27.4287 25.0815 27.6792 25.2036 27.9409C25.4299 28.0373 25.681 28.1677 25.8476 28.3348C25.4048 28.8109 24.8436 29.1172 24.3036 29.4404C23.8385 27.9279 22.3059 26.8674 22.4374 25.1182L22.3662 25.0474C22.006 25.4504 22.1263 26.0948 22.1496 26.6177C22.5807 27.7133 23.6091 28.5595 23.7651 29.761C23.585 30.0702 23.179 30.1318 22.8676 30.2627C22.9038 28.0965 19.6012 26.4536 21.7191 24.2625C22.4254 23.1896 23.6088 22.1657 23.1895 20.6886C22.759 19.2624 21.2363 18.3787 21.2497 16.7799L21.2521 16.6552C21.5989 14.9879 22.6525 13.2138 21.7906 11.4401C21.5504 10.7266 21.0137 9.91593 20.2837 9.61776C21.372 10.8571 21.8035 12.8792 21.1809 14.5468C20.8671 15.2102 20.4351 16.0004 20.3917 16.7802H20.3892C20.366 17.1874 20.4496 17.5924 20.7137 17.9764C21.5401 19.3103 22.9753 20.7756 22.1497 22.514C21.2164 23.9064 19.5889 25.3227 20.4978 27.1567C21.1559 28.2519 22.174 29.3449 21.8994 30.6913L20.8224 31.0481C21.5404 28.5367 18.0217 27.0611 19.4947 24.5488C20.4041 23.2035 22.0306 21.9413 21.1099 20.1558C20.5594 19.0495 19.4221 18.3948 19.458 17.0122L19.4972 16.7801C19.8678 14.8193 21.3659 12.9633 20.3184 10.868C20.0431 10.2493 19.493 9.61851 18.8824 9.26105L18.8455 9.29776C20.0668 10.4764 20.4383 12.4157 19.7799 13.9746C19.4726 14.8892 18.7984 15.8003 18.6613 16.7804C18.5961 17.2425 18.6511 17.7215 18.9195 18.226C19.6973 19.4513 21.0612 20.7511 20.21 22.3352C19.3138 23.6437 17.8174 24.9169 18.4151 26.6184C19.0734 28.1071 20.4481 29.5253 19.7059 31.3712L18.5945 31.6209C19.4797 29.822 18.1524 28.0369 17.3749 26.4767C16.429 24.2383 19.4071 23.1665 19.4549 21.12C19.4436 19.7991 18.0321 19.0491 17.7338 17.8348C17.1229 17.3221 16.4898 18.0387 15.7595 17.9057C15.2203 18.0134 14.3922 17.1673 14.0704 18.0845C13.6871 19.4291 11.941 20.4177 12.7084 22.0126C13.4386 23.4299 15.1959 24.4663 14.6089 26.3005C14.0833 28.0137 12.347 29.6449 13.4238 31.6209C12.9815 31.4784 12.1555 31.7513 12.1674 31.0482C11.4856 28.6553 14.3931 27.2612 13.4951 24.8696C13.0771 23.4046 11.173 22.5953 11.5922 20.8334C11.9021 19.383 13.538 18.3691 13.3085 16.7803C13.2899 16.6473 13.257 16.5111 13.21 16.3692C12.5994 14.6548 11.3537 12.94 12.0962 10.9391C12.3 10.3676 12.7072 9.87954 13.065 9.36872C11.8802 9.99952 11.2825 11.3333 11.307 12.6903C11.2554 14.1659 12.351 15.43 12.5069 16.7803C12.5682 17.3253 12.4785 17.8833 12.0962 18.4752C11.319 19.5245 10.3025 20.6308 10.7685 22.0124C11.2116 23.4059 12.9586 24.2501 12.8509 25.8699C12.8391 27.786 10.6012 28.9789 11.2355 31.1218L10.1217 30.7623C9.67946 28.8581 11.7134 27.8839 11.7368 26.1221C12.0246 24.096 9.42731 23.3443 9.58318 21.3693C9.572 19.8687 10.8997 18.9183 11.486 17.6561C11.5866 17.3489 11.6201 17.0587 11.6066 16.7804C11.5348 15.3848 10.2708 14.2937 10.4806 12.7247C10.5511 11.5699 10.946 10.5576 11.7002 9.68915C10.6597 10.105 10.2298 11.2967 9.94237 12.297C9.44355 13.9008 10.6343 15.3435 10.7537 16.7805C10.8066 17.4151 10.6507 18.046 10.0506 18.691C9.1885 19.7017 8.31426 20.977 8.93667 22.3355C9.59577 23.8343 11.6664 25.001 10.7683 26.8705C10.2783 28.0493 9.10502 28.9417 9.15322 30.3342C8.84233 30.2032 8.51983 30.0726 8.25563 29.8351C8.25563 28.0615 10.7915 26.9537 9.58329 25.0846C9.47626 25.4534 9.45324 25.9546 9.36944 26.3712C8.95012 27.4551 8.05297 28.3228 7.71723 29.4433C7.15581 29.2278 6.56879 28.7748 6.10182 28.2987L6.74865 27.9049C6.67679 27.6663 6.48564 27.4641 6.31847 27.2618C5.8984 27.203 5.62258 27.4772 5.27631 27.5846C4.97715 27.3222 4.68842 27.084 4.44994 26.7626C4.66465 26.1542 6.34235 26.6573 5.49242 25.6569C4.91863 25.3 4.34269 25.8099 3.84021 26.0479L3.15907 25.1919C3.74544 24.8351 4.33031 24.3339 5.05966 24.4776C5.23941 24.7997 5.25189 25.2733 5.59816 25.4414C6.83094 25.4175 7.70443 24.4898 8.64946 23.7634C7.99079 22.7883 7.45465 21.4421 8.03973 20.263C8.50854 19.0813 9.73002 18.0861 9.78542 16.7798C9.7979 16.4825 9.75132 16.1696 9.62062 15.8329C8.97475 14.1778 8.74681 11.9409 9.97959 10.476C9.3093 10.6551 8.91408 11.4863 8.68635 12.1174C7.94529 13.7336 8.88256 15.2308 8.91494 16.7797C8.91935 17.0582 8.89666 17.3375 8.82878 17.6187C8.19432 18.8925 7.16635 20.0102 6.9994 21.476C6.2692 21.9394 5.6697 22.7498 4.62926 22.4763C4.59268 22.7499 4.67648 23.1668 4.7719 23.4767C3.94682 23.4422 3.38422 24.0472 2.68951 24.3329C2.31946 24.2148 2.22319 23.7389 2.0799 23.4058C2.89304 23.1326 3.47963 22.3215 4.41325 22.3344C4.52147 22.0353 4.35258 21.7612 4.30493 21.4757C3.14358 20.9629 1.30269 24.0109 1.14789 21.3683C2.30838 21.2968 3.04999 20.2251 4.19929 20.1183L4.23361 19.2623C2.92929 19.1312 2.09023 20.4652 0.786449 20.3337L0.498908 19.1914C2.00707 19.2852 2.90563 17.9405 4.34193 17.8682C4.53277 17.6185 4.55579 17.2494 4.59258 16.9045C3.02482 16.7012 1.94898 18.4298 0.285054 17.9048C0.285054 17.9048 0.227717 17.1854 0.196629 16.7798H0.198888C0.187593 16.6212 0.176836 16.5106 0.176836 16.5106C1.66058 17.0834 2.96425 16.0231 4.23361 15.4758C4.55643 15.3797 5.05987 15.5463 5.20466 15.1895C5.19208 14.9156 5.69412 14.5954 5.2762 14.4043C3.42047 14.1537 2.18769 16.3806 0.284838 15.368L0.14209 15.0817C0.537956 9.70114 3.58807 4.49916 8.64946 1.93926C10.6994 0.773779 13.246 0.179692 15.8143 0.158608C18.9138 0.133029 22.0457 0.941912 24.3755 2.58269C26.6379 3.9634 28.8021 6.23882 29.9765 8.54871C31.0998 10.5725 31.6168 12.8434 31.7712 15.2611C29.8082 16.7367 28.4913 13.8709 26.4924 14.5123C26.6001 14.8224 26.6597 15.1433 26.8881 15.4052C28.6598 15.3927 29.8797 17.2383 31.7342 16.5109L31.7358 16.7799ZM9.18732 10.1532C7.9426 9.34336 6.36451 10.1059 5.20445 10.5469C5.09677 9.46301 4.65432 8.4755 3.73178 7.76123C3.64228 7.71692 3.51857 7.6237 3.40713 7.61685C3.34043 7.61268 3.27697 7.63944 3.2277 7.72431C3.64583 10.2836 1.97362 12.0693 0.7886 14.0108C1.18318 14.3316 1.8171 14.2837 2.29569 14.1894C3.55192 13.6896 4.74856 12.8197 6.24435 13.1179C6.68669 12.3678 7.42991 11.6414 8.0393 11.0461C8.41161 10.7256 8.92312 10.522 9.18732 10.1532ZM12.9934 11.7605C12.9696 11.9146 13.0054 12.1893 13.2442 12.0832C13.6158 11.5713 14.2736 11.9762 14.6802 12.0123V11.8683C14.4571 11.5197 13.9981 11.3446 13.532 11.362C13.4244 11.3658 13.3151 11.3814 13.2099 11.4057C13.0539 11.4402 12.9454 11.5822 12.9934 11.7605ZM18.845 10.2267C18.5108 9.48837 17.7449 9.18956 17.0499 9.01105C16.7092 8.96931 16.3556 8.94106 16.0049 8.93774C15.9392 8.9371 15.8736 8.93624 15.8082 8.93774C14.8272 8.95743 13.89 9.20797 13.3173 10.0113C13.2352 10.2381 12.8738 10.5566 13.2093 10.7598C13.9633 10.7119 14.8237 10.6178 15.3263 11.2615C15.3263 11.8336 15.6975 12.5946 15.0755 12.8685C14.5601 12.3937 13.9498 13.0706 13.389 12.6895C13.1253 12.5346 12.9585 12.7154 12.8505 12.9416C12.6946 14.4175 13.4714 16.0464 14.8593 16.8676C15.4218 17.0695 16.1779 17.2615 16.7649 16.9751C18.1769 16.321 18.7618 14.8218 19.0247 13.4405C18.9894 13.1777 19.002 12.6655 18.6313 12.6531C18.2128 12.9164 17.6023 12.7608 17.1586 12.6531C16.8964 12.7373 16.8843 13.119 16.5858 13.1914L16.4039 13.047C16.2482 12.3932 16.1521 11.4642 16.763 11.0119C17.4457 10.738 18.2474 10.6183 18.9534 10.8332C19.0852 10.6072 18.8817 10.4292 18.845 10.2267ZM18.1245 11.4007C18.0771 11.4018 18.031 11.4042 17.9843 11.4057C17.7335 11.5721 17.0028 11.4525 17.2665 12.0123C17.7216 11.6542 18.3558 11.9052 18.8105 12.0832C18.9787 12.0001 18.9422 11.8334 18.9533 11.6896C18.8073 11.4194 18.4584 11.394 18.1245 11.4007ZM23.3347 6.36693C22.449 6.32016 21.7072 6.82039 20.8933 7.04674C20.8225 6.35772 21.3486 5.63007 21.4686 4.93838C20.1527 5.02261 19.1104 5.81062 18.0218 6.44013C17.7699 5.83449 17.5172 5.22574 17.267 4.61785L18.703 3.26025L18.7397 3.08142L16.8001 2.97397C16.466 2.39154 16.3343 1.69001 15.9394 1.15425C15.6163 1.76139 15.3992 2.40396 15.0764 3.01057L13.139 3.11834V3.26025L14.6094 4.58114C14.4296 5.26009 14.2626 5.99781 13.8202 6.51098C12.9587 5.99759 12.1094 5.43882 11.1648 5.08233C10.9375 5.00934 10.6135 4.89065 10.4101 5.04572C10.7088 5.70071 11.1272 6.40524 11.0568 7.12016C10.6617 7.04781 10.3511 6.79577 9.97991 6.68982C9.53596 6.56931 9.00918 6.33386 8.57846 6.47706C9.29661 7.47655 9.88277 8.52259 10.0855 9.72543C12.468 8.58146 15.2463 7.95227 18.1304 8.44115C19.4822 8.6552 20.7253 9.20305 21.9341 9.65437C21.9813 8.3931 22.7831 7.37958 23.3347 6.36693ZM27.4259 13.2254C28.6456 13.5466 29.8691 14.8687 31.1606 14.0109C30.0358 12.1539 28.3617 10.4391 28.8272 8.0107C28.876 7.84492 28.7683 7.67711 28.6134 7.65356C27.8837 7.95023 27.3187 8.66547 27.0299 9.36851C26.9112 9.78429 26.8408 10.2263 26.6735 10.6182C25.7994 10.1656 24.8666 9.72714 23.8017 9.8331C23.4176 9.88072 22.8671 9.90576 22.7962 10.298C24.0048 10.9406 24.9986 12.0129 25.7393 13.1549C26.255 13.0712 26.8874 13.1427 27.4259 13.2254ZM14.6457 14.9037L14.6801 15.1189C15.1477 15.4288 15.2915 15.9541 15.9389 15.9064C16.513 15.9403 16.9437 15.4052 17.2298 14.9769C16.4529 14.8702 15.5075 15.0353 14.6457 14.9037ZM15.2922 13.9399C15.3155 14.0353 15.2329 14.1781 15.3634 14.2263C15.7463 14.1436 16.4401 14.429 16.6539 13.9766C16.5046 13.8102 16.2608 13.7346 16.005 13.7346C15.7493 13.7346 15.484 13.8088 15.2922 13.9399Z" fill="#007042"/>
<path opacity="0.99" d="M14.646 13.5268H17.2699V14.5993H14.646V13.5268Z" fill="white"/>
<path d="M15.1309 14.1002C15.47 14.1801 15.5539 14.2997 15.8219 14.3331C16.1067 14.3281 16.0656 14.2705 16.5625 14.0999C16.5951 14.0885 16.6399 14.0169 16.5843 13.962C16.2758 13.6573 16.0626 13.875 15.8692 13.8807C15.6126 13.8835 15.372 13.6622 15.1213 13.9499C15.0786 14.0083 15.0564 14.0657 15.1309 14.1002Z" fill="#007042"/>
</svg>
